<svg xmlns="http://www.w3.org/2000/svg" viewBox="0 0 256 256">
  <circle fill="#222" cx="128" cy="128" r="128"/>
  <circle cx="128.1" cy="128.1" r="96" fill="#82d"/>
  <path fill="#aaa" d="M111.7 104.3c.4-1.8.1-3.5-.1-5.3.7-.1 1-.6 1-1.3-.1-.8-.7-1-1.4-1.1-.1-1.7-.3-3.5-.4-5.2 1.6-1 .7-2.5.6-3.8-.2-3.1-.8-6.3-1-9.5-.1-2.6 1.9-4.3 4.4-3.2 7.6 3.1 15.1 6.3 22.6 9.6 1.3.6 2.5.9 3.8.7 3.4-.4 6.9-.4 10.3 0 .9.1 1.8.2 2.8-.2 7.8-3.4 15.6-6.7 23.5-10.1 2.4-1 4.5.6 4.5 3.1 0 .6 0 1.1-.1 1.7-.5 4.3-1.1 8.7-1.7 13.1-.1 1 .1 1.6 1 2-.3 1.7-.5 3.5-.8 5.2-1.6.6-1.6 1.4-.3 2.4.3 1.8 1 3.4.7 5.3-1 1.5-2.7 1.4-4.2 1.3-.6 0-1.3 0-1.9.1-.7.1-1.2.4-1.1 1.3.1.7.5 1 1.1 1 1 .1 1.9 0 2.8.1.7.1 1.9-.5 1.8 1-.1 1.1-.4 2-1.8 1.8-.9-.1-1.8 0-2.7 0-.7 0-1.3.3-1.3 1.1s.4 1.2 1.2 1.2c.9.1 1.8 0 3 0-.8 1.6-1.3 2.9-3.1 2.8-.7 0-1.3.5-1 1.3.5 1.3-.4 1.8-1 2.3-2.6 2.2-5.4 4-8.6 5.4-2.5 1-2.5 1-3.6-1.4-.2-.4-.4-.9-.7-1.3-.4-.6-.7-1.2-1.6-.7-1 .5-.8 1.2-.4 1.9 1.9 3.2 2.1 6.7 2.1 10.4 0 6.5.2 13 .1 19.6-.1 3.9.6 7.8 0 11.7-.6 4-3.9 6.8-8 6.9-4.1.1-7.6-2.8-8.2-6.8-.6-3.6-.1-7.3-.3-10.9-.1-1.3.4-1.9 1.5-2.5 2.7-1.3 5.2-2.9 7.5-4.9.6-.5 1.7-1 .8-2.2-.8-1-1.6-.3-2.3.3-3.9 3.2-8.4 5.7-13.3 7.4-2.7 1-5.4 1.7-8.2 2.5-.7.2-1.4.3-1.4 1.3 0 .9.6 1.2 1.4 1.1.5-.1.9.1.9.7.1 2.8-.2 5.2-2.7 7.3v-2.2-12.1-1.1c.1-1-.2-1.7-1.3-1.7-1 .1-1 .9-1 1.7 0 6.2 0 12.4-.1 18.7 0 1.1-.1 2.3-.3 3.4-.7 3.5-4.5 6.4-8 6.4-3.6-.1-7.4-3.1-8-6.5-.4-2.8-.7-5.7-1.1-8.5-.7-5.8-1.6-11.6-2.4-17.5-.1-1-.4-1.9-1.6-1.6-1.2.2-.8 1.2-.7 2 .4 3 .8 6.1 1.3 9.1.3 1.6-.4 2-1.9 1.8-1-.1-2-.2-3.1-.3-6.2-.6-12.2-1.8-16.9-6.5-.9-.9-1.9-1.6-2.9-2.5-.7-.6-1.4-1-2.1-.1-.7.8.1 1.4.6 1.9 2.3 2.2 4.8 4.1 7.5 5.8.8.5 1.2 1.1 1.2 2.2-.1 2 0 4.1 0 6.1-.1 4.3-3.4 7.9-7.7 8-4.5.2-8.2-2.9-8.8-7.3-.9-6.4-1.9-12.7-2.8-19.1-.9-6.2-2.2-12.4-1.7-18.7.5-6 2.6-11.2 7.4-14.9 3.1-2.4 6.7-3.9 10.4-5 1.6-.4 1.1-1.9 1.4-2.8.3-1-.9-1.2-1.7-1.2-.5-1.6-1.3-3.1-2.4-4.3.7-1 .4-1.8-.2-2.8-2.4-3.4-5.4-6.5-7.9-9.8-2.1-2.7-4-5.6-4.7-9.1-.5-2.8 1.1-4.9 3.8-4.6 1.4.1 2.9.4 4.2 1 7.8 3.9 13.2 10.3 16.2 18.5 1.9 5.3 1.2 10.9.6 16.3-.5 4.7-1.1 9.5-1.6 14.2-.1.9-.2 2.1 1.1 2.2 1.4.1 1.3-1.1 1.3-2 0-5.5 1.3-10.9 1.6-16.4.1-1.5 1-1.9 2.2-1.9 4.1 0 8.2-.3 12.4-.1 8.7.3 17.2 1.5 25.4 4.3 3.6 1.2 7.1 2.7 10.5 4.6.7.4 1.5.6 1.9-.3.5-.9-.1-1.4-.9-1.8-.1-.1-.4-.1-.5-.2-9.9-5.4-20.6-7.7-31.7-8.5-.9-.3-2.3-.3-3.2-1.3zm-24.3 16.9c0-1.9 0-4-.1-5.9 0-.8-.3-1.6-1.3-1.4-1 .1-1.2.9-1 1.7.2 1.5.1 2.9 0 4.3-.1 2.2-.3 4.3.1 6.5.1.8.3 1.7 1.5 1.6 1-.1 1-1 .9-1.8-.1-1.6-.1-3.3-.1-5zm2.6 19.7c.3-.2 1.3-.6.5-1.6-1.1-1.3-.6-2.1.4-3 .6-.6 1.2-1.3.2-2.1-.8-.7-1.4-.1-1.9.5-.7.9-1.4 1.5-2.3.2-.5-.7-1.2-.7-1.8-.1-.5.6-.4 1.3.1 1.6 1.3 1.1.8 2-.2 2.8-.2.2-.4.4-.6.7-.4.4-.4 1 .1 1.3.4.4 1 .7 1.5.3.6-.5 1-1.2 1.6-1.6.9-.4 1 1.4 2.4 1zm63.7-22.1c-.7 0-1.1.4-1.1 1.2 0 .7.3 1 1 1s1.1-.3 1.2-1c0-.6-.3-1.1-1.1-1.2z"/>
  <path fill="#222" d="M83.6 106.2c.9 0 2 .1 1.7 1.2-.3.9.1 2.3-1.4 2.8-3.7 1.1-7.3 2.6-10.4 5-4.9 3.7-7 9-7.4 14.9-.5 6.4.8 12.5 1.7 18.7.9 6.4 2 12.7 2.8 19.1.6 4.3 4.2 7.5 8.8 7.3 4.2-.1 7.6-3.7 7.7-8 0-2-.1-4.1 0-6.1.1-1-.4-1.6-1.2-2.2-2.7-1.7-5.2-3.7-7.5-5.8-.5-.5-1.3-1-.6-1.9.7-.9 1.4-.4 2.1.1 1 .8 2 1.6 2.9 2.5 4.7 4.6 10.6 5.8 16.9 6.5 1 .1 2 .1 3.1.3 1.4.2 2.2-.1 1.9-1.8-.5-3-.8-6.1-1.3-9.1-.1-.8-.4-1.8.7-2 1.2-.2 1.6.7 1.6 1.6.8 5.8 1.6 11.6 2.4 17.5.4 2.8.7 5.7 1.1 8.5.5 3.4 4.3 6.5 8 6.5 3.6.1 7.4-2.9 8-6.4.2-1.1.3-2.2.3-3.4.1-6.2 0-12.4.1-18.7 0-.8 0-1.6 1-1.7 1.1-.1 1.3.7 1.3 1.7V168.7c2.5-2.1 2.8-4.6 2.7-7.3 0-.6-.4-.7-.9-.7-.8.1-1.4-.2-1.4-1.1-.1-1 .7-1 1.4-1.3 2.8-.8 5.5-1.6 8.2-2.5 4.8-1.7 9.3-4.1 13.3-7.4.7-.6 1.5-1.3 2.3-.3.9 1-.1 1.6-.8 2.2-2.3 1.9-4.8 3.5-7.5 4.9-1.1.5-1.6 1.3-1.5 2.5.2 3.7-.3 7.3.3 10.9.7 4 4.1 6.8 8.2 6.8 4-.1 7.3-2.9 8-6.9.6-3.9-.1-7.8 0-11.7.1-6.5-.1-13-.1-19.6 0-3.6-.2-7.2-2.1-10.4-.4-.7-.6-1.4.4-1.9.9-.4 1.3.1 1.6.7.3.4.4.9.7 1.3 1.2 2.5 1.2 2.5 3.6 1.4 3.1-1.3 5.9-3.2 8.6-5.4.7-.6 1.6-1 1-2.3-.3-.7.4-1.3 1-1.3 1.8.1 2.3-1.3 3.1-2.8h-3c-.7 0-1.2-.4-1.2-1.2s.5-1.1 1.3-1.1c.9 0 1.8-.1 2.7 0 1.4.1 1.8-.7 1.8-1.8.1-1.5-1.1-.9-1.8-1-1-.1-1.9 0-2.8-.1-.6-.1-1.1-.3-1.1-1-.1-.8.4-1.2 1.1-1.3.6-.1 1.3-.1 1.9-.1 1.6.1 3.1.1 4.2-1.3 2.8 1.9 5.9 1.1 8.9 1.3 1 .1 2.2.1 2.1 1.3-.1 1.3-1.2 1.3-2.2 1.3-2.1 0-4.2.1-6.3 0-1.3-.1-1.6.7-1.7 1.8-.1 1.3 1 1 1.6 1 2.1.1 4.2 0 6.3 0 .9 0 2.3-.4 2.3 1.2-.1 1.6-1.5 1.1-2.4 1.1-2.5.1-5.1 0-7.6 0-.7 0-1.4 0-1.8.8-.2.5-.8 1-.5 1.6.3.7 1 .3 1.6.3h8.8c1 0 2 .2 2 1.5s-1.1 1.2-1.9 1.2c-3 0-6 .1-8.9-.1-2.5-.1-4.5.4-6.3 2.3-3.1 3.2-6.9 5.4-11 7-1.2.4-1.4 1-1.4 2.2.1 5.8-.1 11.5.1 17.2.3 5.4.2 10.7.3 16.1 0 8.5-8.6 13.6-15.9 9.4-3.4-1.9-5.3-5.1-5.4-9.1-.1-2.8-.1-5.6 0-8.5 0-1.2-.3-1.6-1.6-1.1-1.7.7-3.4 1.3-5.2 1.7-1.3.4-1.8 1-1.6 2.3.3 2.9-.4 5.5-2.2 7.9-.4.6-1 1.2-1.6 1.6-.9.5-1.1 1.3-1.1 2.2-.1 6.1-4.8 10.7-10.6 10.8-5.7.1-10.3-4.5-10.7-10.5-.2-3.1-.7-6.3-1.1-9.4-.1-.7-.5-1.1-1.3-1.1-4.5-.1-8.8-.7-13.1-1.9-1.1-.3-1.3.4-1.3 1.3 0 1.9-.1 3.8-.3 5.7-.7 5.6-4.9 9.5-10.7 9.4-5.5 0-9.6-4.1-10.4-9.7-.9-7-2.1-13.9-3.2-20.8-1-6.1-1.8-12.3-1.2-18.4.8-8.8 5.6-15 13.6-18.7 1.1-.5 2.3-1 3.5-1.4.6-.2 1.7-.6 1.9-2.2z"/>
  <path fill="#222" d="M111.7 104.3c1 1.1 2.2 1 3.5 1.1 11.1.8 21.8 3.2 31.7 8.5.1.1.4.1.5.2.7.4 1.3.8.9 1.8-.4.9-1.2.7-1.9.3-3.4-1.9-6.9-3.4-10.5-4.6-8.3-2.8-16.8-4-25.4-4.3-4.1-.1-8.3.2-12.4.1-1.3 0-2.2.4-2.2 1.9-.3 5.5-1.6 10.9-1.6 16.4 0 .9.1 2.1-1.3 2s-1.3-1.3-1.1-2.2c.5-4.8 1.1-9.5 1.6-14.2.6-5.5 1.4-11-.6-16.3-3.1-8.2-8.5-14.5-16.4-18.6-1.3-.7-2.8-.9-4.2-1-2.7-.2-4.3 1.9-3.8 4.6.7 3.5 2.6 6.4 4.7 9.1 2.6 3.3 5.5 6.4 7.9 9.8.7 1 1 1.8.2 2.8-.7.1-1.3-.1-1.6-.7-3.4-5-7.9-9-10.9-14.2-1.4-2.3-2.4-4.7-2.6-7.5-.4-4.8 3.8-6.9 7.5-6.2 3.6.6 6.6 2.2 9.3 4.5 5.9 5 10.8 10.8 12.7 18.6.6 2.4.7 4.9.7 7.4-.1 1.3.4 1.7 1.6 1.6 3.8-.3 7.6-.5 11.4-.4.8.3 1.3-.7 2.3-.5zM181.3 94.6c-.9-.4-1.1-1.1-1-2 .6-4.3 1.1-8.7 1.7-13.1.1-.6.1-1.1.1-1.7 0-2.5-2.2-4.1-4.5-3.1-7.8 3.3-15.6 6.7-23.5 10.1-1 .4-1.9.3-2.8.2-3.4-.4-6.9-.4-10.3 0-1.3.1-2.5-.1-3.8-.7-7.5-3.3-15-6.4-22.6-9.6-2.5-1-4.6.6-4.4 3.2.2 3.1.7 6.3 1 9.5.1 1.3 1 2.8-.6 3.8-1.2 0-1.4-.8-1.6-1.8-.4-3.7-1-7.4-1.4-11.2-.5-4 3.8-7.4 7.6-5.9 4.5 1.7 8.9 3.7 13.3 5.6 3.5 1.5 7 3 10.5 4.6 1 .4 1.7-.1 2.6-.1 3.4.1 6.7-.4 10.1.3.6.1 1.1-.1 1.6-.3 7.7-3.3 15.3-6.6 22.9-9.8 2.8-1.2 5.5-.4 7.2 2.1 1.3 1.9.7 4.2.5 6.4-.4 3.7-.9 7.4-1.3 11.2.1.9.1 2-1.3 2.3z"/>
  <path fill="#222" d="M111.1 96.5c.7.1 1.3.3 1.4 1.1.1.7-.4 1.1-1 1.3-1.6-.5-1.7-1.4-.4-2.4zM180.2 102.3c-1.3-1-1.4-1.8.3-2.4.7.1 1.3.6 1.1 1.4-.1.9-.7 1-1.4 1zM87.4 121.2v4.9c0 .8.1 1.6-.9 1.8-1.2.1-1.3-.7-1.5-1.6-.4-2.2-.2-4.3-.1-6.5.1-1.5.3-2.9 0-4.3-.1-.8.1-1.6 1-1.7 1-.1 1.3.7 1.3 1.4.2 2 .1 4.1.2 6zM90 140.9c-1.3.4-1.5-1.4-2.5-.7-.6.4-1 1.1-1.6 1.6-.6.5-1 .1-1.5-.3-.4-.4-.4-.9-.1-1.3.2-.2.4-.5.6-.7 1-.9 1.6-1.8.2-2.8-.5-.4-.7-1.1-.1-1.6.6-.6 1.3-.6 1.8.1 1 1.3 1.6.7 2.3-.2.4-.6 1-1.2 1.9-.5.9.7.4 1.5-.2 2.1-1 .9-1.4 1.7-.4 3 .9.7-.2 1.1-.4 1.3zM153.7 118.8c.8.1 1.1.6 1 1.3 0 .7-.5 1-1.2 1s-1-.4-1-1c.1-.8.5-1.2 1.2-1.3z"/>
</svg>